<mxfile host="app.diagrams.net" agent="Mozilla/5.0 (X11; Linux x86_64; rv:136.0) Gecko/20100101 Firefox/136.0" version="26.1.0">
  <diagram name="Page-1" id="E4Hjsghnv1vzK-FUTS2O">
    <mxGraphModel dx="6486" dy="4008" grid="1" gridSize="10" guides="1" tooltips="1" connect="1" arrows="1" fold="1" page="1" pageScale="1" pageWidth="850" pageHeight="1100" math="0" shadow="0">
      <root>
        <mxCell id="0" />
        <mxCell id="1" parent="0" />
        <mxCell id="X7-3SCbGee9ea4Wvlvof-1" value="&lt;p style=&quot;margin:0px;margin-top:4px;text-align:center;&quot;&gt;&lt;i&gt;&amp;lt;&amp;lt;Interface&amp;gt;&amp;gt;&lt;/i&gt;&lt;br&gt;&lt;b&gt;HaSpostamento&lt;/b&gt;&lt;/p&gt;&lt;br&gt;&lt;hr size=&quot;1&quot; style=&quot;border-style:solid;&quot;&gt;&lt;p style=&quot;margin:0px;margin-left:4px;&quot;&gt;default modificaGiorni(giocatore: Giocatore, giorni: int): void&lt;/p&gt;" style="verticalAlign=top;align=left;overflow=fill;html=1;whiteSpace=wrap;" vertex="1" parent="1">
          <mxGeometry x="-470" y="-80" width="340" height="90" as="geometry" />
        </mxCell>
        <mxCell id="X7-3SCbGee9ea4Wvlvof-2" value="&lt;p style=&quot;margin:0px;margin-top:4px;text-align:center;&quot;&gt;&lt;i&gt;&amp;lt;&amp;lt;Interface&amp;gt;&amp;gt;&lt;/i&gt;&lt;br&gt;&lt;b&gt;HaRequisito&lt;/b&gt;&lt;/p&gt;&lt;div&gt;&lt;hr&gt;&amp;nbsp;default soddisfaRequisito(giocatore: Giocatore, tipoRequisito: TipoElemento, quantita: int): bool&lt;/div&gt;" style="verticalAlign=top;align=left;overflow=fill;html=1;whiteSpace=wrap;" vertex="1" parent="1">
          <mxGeometry x="160" y="-60" width="510" height="70" as="geometry" />
        </mxCell>
        <mxCell id="X7-3SCbGee9ea4Wvlvof-3" value="&lt;p style=&quot;margin:0px;margin-top:4px;text-align:center;&quot;&gt;&lt;i&gt;&amp;lt;&amp;lt;Interface&amp;gt;&amp;gt;&lt;/i&gt;&lt;br&gt;&lt;b&gt;HaGuadagnoCrediti&lt;/b&gt;&lt;/p&gt;&lt;br&gt;&lt;hr size=&quot;1&quot; style=&quot;border-style:solid;&quot;&gt;&lt;p style=&quot;margin:0px;margin-left:4px;&quot;&gt;default daiCrediti(giocatore: Giocatore, quantita: int): void&lt;/p&gt;" style="verticalAlign=top;align=left;overflow=fill;html=1;whiteSpace=wrap;" vertex="1" parent="1">
          <mxGeometry x="-950" y="-80" width="310" height="80" as="geometry" />
        </mxCell>
        <mxCell id="X7-3SCbGee9ea4Wvlvof-4" value="&lt;p style=&quot;margin:0px;margin-top:4px;text-align:center;&quot;&gt;&lt;i&gt;&amp;lt;&amp;lt;Interface&amp;gt;&amp;gt;&lt;/i&gt;&lt;br&gt;&lt;b&gt;HaGuadagnoMerce&lt;/b&gt;&lt;/p&gt;&lt;hr size=&quot;1&quot; style=&quot;border-style:solid;&quot;&gt;&lt;div&gt;&amp;nbsp;default daiMerce(giocatore: Giocatore, merceGuadagnata: int[4]): void&lt;/div&gt;" style="verticalAlign=top;align=left;overflow=fill;html=1;whiteSpace=wrap;" vertex="1" parent="1">
          <mxGeometry x="860" y="-60" width="390" height="90" as="geometry" />
        </mxCell>
        <mxCell id="X7-3SCbGee9ea4Wvlvof-5" value="&lt;p style=&quot;margin:0px;margin-top:4px;text-align:center;&quot;&gt;&lt;i&gt;&amp;lt;&amp;lt;Interface&amp;gt;&amp;gt;&lt;/i&gt;&lt;br&gt;&lt;b&gt;HaPerditaPerColpi&lt;/b&gt;&lt;/p&gt;&lt;br&gt;&lt;hr size=&quot;1&quot; style=&quot;border-style:solid;&quot;&gt;&lt;p style=&quot;margin:0px;margin-left:4px;&quot;&gt;default colpisci(giocatore: Giocatore, colpi: arrayDiColpi, tipo: TipoElemento): void&lt;/p&gt;" style="verticalAlign=top;align=left;overflow=fill;html=1;whiteSpace=wrap;" vertex="1" parent="1">
          <mxGeometry x="-1580" y="-100" width="445" height="90" as="geometry" />
        </mxCell>
        <mxCell id="X7-3SCbGee9ea4Wvlvof-6" value="&lt;p style=&quot;margin:0px;margin-top:4px;text-align:center;&quot;&gt;&lt;i&gt;&amp;lt;&amp;lt;Interface&amp;gt;&amp;gt;&lt;/i&gt;&lt;br&gt;&lt;b&gt;HaPerditaSegnalini&lt;/b&gt;&lt;/p&gt;&lt;hr size=&quot;1&quot; style=&quot;border-style:solid;&quot;&gt;&lt;p style=&quot;margin:0px;margin-left:4px;&quot;&gt;default infiggiPerdita(giocatore: Giocatore, tipo: TipoElemento, quantita: int): void&lt;/p&gt;" style="verticalAlign=top;align=left;overflow=fill;html=1;whiteSpace=wrap;" vertex="1" parent="1">
          <mxGeometry x="1550" y="-40" width="440" height="70" as="geometry" />
        </mxCell>
        <mxCell id="X7-3SCbGee9ea4Wvlvof-7" value="&lt;p style=&quot;margin:0px;margin-top:4px;text-align:center;&quot;&gt;&lt;i&gt;&amp;lt;&amp;lt;Interface&amp;gt;&amp;gt;&lt;/i&gt;&lt;/p&gt;&lt;p style=&quot;margin:0px;margin-top:4px;text-align:center;&quot;&gt;&lt;b&gt;CalcoloMinimoAbitanti&lt;/b&gt;&lt;/p&gt;&lt;hr size=&quot;1&quot; style=&quot;border-style:solid;&quot;&gt;&amp;nbsp;default calcolaMinimoPedine(void): Giocatore" style="verticalAlign=top;align=left;overflow=fill;html=1;whiteSpace=wrap;" vertex="1" parent="1">
          <mxGeometry x="-2100" y="-100" width="250" height="70" as="geometry" />
        </mxCell>
        <mxCell id="X7-3SCbGee9ea4Wvlvof-8" value="&lt;i&gt;Carta&lt;/i&gt;" style="swimlane;fontStyle=1;align=center;verticalAlign=top;childLayout=stackLayout;horizontal=1;startSize=26;horizontalStack=0;resizeParent=1;resizeParentMax=0;resizeLast=0;collapsible=1;marginBottom=0;whiteSpace=wrap;html=1;" vertex="1" parent="1">
          <mxGeometry x="-720" y="2260" width="210" height="162" as="geometry" />
        </mxCell>
        <mxCell id="X7-3SCbGee9ea4Wvlvof-9" value="&lt;div&gt;#ivello: int&lt;/div&gt;&lt;div&gt;#nomeCarta: String&lt;/div&gt;&lt;div&gt;#risolta: bool&lt;/div&gt;&lt;div&gt;&lt;br&gt;&lt;/div&gt;" style="text;strokeColor=none;fillColor=none;align=left;verticalAlign=top;spacingLeft=4;spacingRight=4;overflow=hidden;rotatable=0;points=[[0,0.5],[1,0.5]];portConstraint=eastwest;whiteSpace=wrap;html=1;" vertex="1" parent="X7-3SCbGee9ea4Wvlvof-8">
          <mxGeometry y="26" width="210" height="56" as="geometry" />
        </mxCell>
        <mxCell id="X7-3SCbGee9ea4Wvlvof-10" value="" style="line;strokeWidth=1;fillColor=none;align=left;verticalAlign=middle;spacingTop=-1;spacingLeft=3;spacingRight=3;rotatable=0;labelPosition=right;points=[];portConstraint=eastwest;strokeColor=inherit;" vertex="1" parent="X7-3SCbGee9ea4Wvlvof-8">
          <mxGeometry y="82" width="210" height="8" as="geometry" />
        </mxCell>
        <mxCell id="X7-3SCbGee9ea4Wvlvof-11" value="&lt;div&gt;&lt;i&gt;+risolvi(giocatore: Giocatore) : void&lt;/i&gt;&lt;/div&gt;&lt;div&gt;+isRisolta(void): bool&lt;/div&gt;&lt;div&gt;+getLivello(void): int&lt;/div&gt;&lt;div&gt;+getNomeCarta(void): String&lt;/div&gt;" style="text;strokeColor=none;fillColor=none;align=left;verticalAlign=top;spacingLeft=4;spacingRight=4;overflow=hidden;rotatable=0;points=[[0,0.5],[1,0.5]];portConstraint=eastwest;whiteSpace=wrap;html=1;" vertex="1" parent="X7-3SCbGee9ea4Wvlvof-8">
          <mxGeometry y="90" width="210" height="72" as="geometry" />
        </mxCell>
        <mxCell id="X7-3SCbGee9ea4Wvlvof-12" value="Pianeti" style="swimlane;fontStyle=1;align=center;verticalAlign=top;childLayout=stackLayout;horizontal=1;startSize=26;horizontalStack=0;resizeParent=1;resizeParentMax=0;resizeLast=0;collapsible=1;marginBottom=0;whiteSpace=wrap;html=1;" vertex="1" parent="1">
          <mxGeometry x="2410" y="840" width="220" height="150" as="geometry" />
        </mxCell>
        <mxCell id="X7-3SCbGee9ea4Wvlvof-13" value="&lt;div&gt;-giorniPersi: int&lt;/div&gt;&lt;div&gt;-pianeta1: int[4]&lt;/div&gt;&lt;div&gt;-pianeta2: int[4]&lt;/div&gt;&lt;div&gt;-pianeta3: int[4]&lt;/div&gt;" style="text;strokeColor=none;fillColor=none;align=left;verticalAlign=top;spacingLeft=4;spacingRight=4;overflow=hidden;rotatable=0;points=[[0,0.5],[1,0.5]];portConstraint=eastwest;whiteSpace=wrap;html=1;" vertex="1" parent="X7-3SCbGee9ea4Wvlvof-12">
          <mxGeometry y="26" width="220" height="74" as="geometry" />
        </mxCell>
        <mxCell id="X7-3SCbGee9ea4Wvlvof-14" value="" style="line;strokeWidth=1;fillColor=none;align=left;verticalAlign=middle;spacingTop=-1;spacingLeft=3;spacingRight=3;rotatable=0;labelPosition=right;points=[];portConstraint=eastwest;strokeColor=inherit;" vertex="1" parent="X7-3SCbGee9ea4Wvlvof-12">
          <mxGeometry y="100" width="220" height="8" as="geometry" />
        </mxCell>
        <mxCell id="X7-3SCbGee9ea4Wvlvof-15" value="&lt;div&gt;+risolvi(giocatore: Giocatore): void&lt;/div&gt;&lt;div&gt;+Pianeti(void)&lt;/div&gt;" style="text;strokeColor=none;fillColor=none;align=left;verticalAlign=top;spacingLeft=4;spacingRight=4;overflow=hidden;rotatable=0;points=[[0,0.5],[1,0.5]];portConstraint=eastwest;whiteSpace=wrap;html=1;" vertex="1" parent="X7-3SCbGee9ea4Wvlvof-12">
          <mxGeometry y="108" width="220" height="42" as="geometry" />
        </mxCell>
        <mxCell id="X7-3SCbGee9ea4Wvlvof-16" value="NaveAbbandonata" style="swimlane;fontStyle=1;align=center;verticalAlign=top;childLayout=stackLayout;horizontal=1;startSize=26;horizontalStack=0;resizeParent=1;resizeParentMax=0;resizeLast=0;collapsible=1;marginBottom=0;whiteSpace=wrap;html=1;" vertex="1" parent="1">
          <mxGeometry x="480" y="810" width="200" height="170" as="geometry" />
        </mxCell>
        <mxCell id="X7-3SCbGee9ea4Wvlvof-17" value="&lt;div&gt;-giorniPersi: int&lt;/div&gt;&lt;div&gt;-tipoPerdita: TipoElemento&lt;/div&gt;&lt;div&gt;-numPerdite: int&lt;/div&gt;&lt;div&gt;-numSoldiGuadagnati: int&lt;/div&gt;" style="text;strokeColor=none;fillColor=none;align=left;verticalAlign=top;spacingLeft=4;spacingRight=4;overflow=hidden;rotatable=0;points=[[0,0.5],[1,0.5]];portConstraint=eastwest;whiteSpace=wrap;html=1;" vertex="1" parent="X7-3SCbGee9ea4Wvlvof-16">
          <mxGeometry y="26" width="200" height="84" as="geometry" />
        </mxCell>
        <mxCell id="X7-3SCbGee9ea4Wvlvof-18" value="" style="line;strokeWidth=1;fillColor=none;align=left;verticalAlign=middle;spacingTop=-1;spacingLeft=3;spacingRight=3;rotatable=0;labelPosition=right;points=[];portConstraint=eastwest;strokeColor=inherit;" vertex="1" parent="X7-3SCbGee9ea4Wvlvof-16">
          <mxGeometry y="110" width="200" height="8" as="geometry" />
        </mxCell>
        <mxCell id="X7-3SCbGee9ea4Wvlvof-19" value="&lt;div&gt;+risolvi(giocatore: Giocatore): void&lt;/div&gt;&lt;div&gt;+NaveAbbandonata(void)&lt;/div&gt;" style="text;strokeColor=none;fillColor=none;align=left;verticalAlign=top;spacingLeft=4;spacingRight=4;overflow=hidden;rotatable=0;points=[[0,0.5],[1,0.5]];portConstraint=eastwest;whiteSpace=wrap;html=1;" vertex="1" parent="X7-3SCbGee9ea4Wvlvof-16">
          <mxGeometry y="118" width="200" height="52" as="geometry" />
        </mxCell>
        <mxCell id="X7-3SCbGee9ea4Wvlvof-20" value="StazioneAbbandonata" style="swimlane;fontStyle=1;align=center;verticalAlign=top;childLayout=stackLayout;horizontal=1;startSize=26;horizontalStack=0;resizeParent=1;resizeParentMax=0;resizeLast=0;collapsible=1;marginBottom=0;whiteSpace=wrap;html=1;" vertex="1" parent="1">
          <mxGeometry x="-500" y="800" width="220" height="130" as="geometry" />
        </mxCell>
        <mxCell id="X7-3SCbGee9ea4Wvlvof-21" value="&lt;div&gt;-giorniPersi: int&lt;/div&gt;&lt;div&gt;-tipoRequisito: TipoElemento&lt;/div&gt;&lt;div&gt;-guadagnoMerce: int[4]&lt;/div&gt;" style="text;strokeColor=none;fillColor=none;align=left;verticalAlign=top;spacingLeft=4;spacingRight=4;overflow=hidden;rotatable=0;points=[[0,0.5],[1,0.5]];portConstraint=eastwest;whiteSpace=wrap;html=1;" vertex="1" parent="X7-3SCbGee9ea4Wvlvof-20">
          <mxGeometry y="26" width="220" height="54" as="geometry" />
        </mxCell>
        <mxCell id="X7-3SCbGee9ea4Wvlvof-22" value="" style="line;strokeWidth=1;fillColor=none;align=left;verticalAlign=middle;spacingTop=-1;spacingLeft=3;spacingRight=3;rotatable=0;labelPosition=right;points=[];portConstraint=eastwest;strokeColor=inherit;" vertex="1" parent="X7-3SCbGee9ea4Wvlvof-20">
          <mxGeometry y="80" width="220" height="8" as="geometry" />
        </mxCell>
        <mxCell id="X7-3SCbGee9ea4Wvlvof-23" value="&lt;div&gt;+risolvi(giocatore: Giocatore): void&lt;/div&gt;&lt;div&gt;+StazioneAbbandonata(void)&lt;/div&gt;" style="text;strokeColor=none;fillColor=none;align=left;verticalAlign=top;spacingLeft=4;spacingRight=4;overflow=hidden;rotatable=0;points=[[0,0.5],[1,0.5]];portConstraint=eastwest;whiteSpace=wrap;html=1;" vertex="1" parent="X7-3SCbGee9ea4Wvlvof-20">
          <mxGeometry y="88" width="220" height="42" as="geometry" />
        </mxCell>
        <mxCell id="X7-3SCbGee9ea4Wvlvof-24" value="Contrabbandieri" style="swimlane;fontStyle=1;align=center;verticalAlign=top;childLayout=stackLayout;horizontal=1;startSize=26;horizontalStack=0;resizeParent=1;resizeParentMax=0;resizeLast=0;collapsible=1;marginBottom=0;whiteSpace=wrap;html=1;" vertex="1" parent="1">
          <mxGeometry x="-200" y="795" width="210" height="150" as="geometry" />
        </mxCell>
        <mxCell id="X7-3SCbGee9ea4Wvlvof-25" value="&lt;div&gt;-giorniPersi: int&lt;/div&gt;&lt;div&gt;-tipoRequisito: TipoElemento&lt;/div&gt;&lt;div&gt;-tipoPerdita: TipoElemento&lt;/div&gt;&lt;div&gt;-numPerdita: int&lt;/div&gt;&lt;div&gt;-guadagnoMerce: int[4]&lt;/div&gt;" style="text;strokeColor=none;fillColor=none;align=left;verticalAlign=top;spacingLeft=4;spacingRight=4;overflow=hidden;rotatable=0;points=[[0,0.5],[1,0.5]];portConstraint=eastwest;whiteSpace=wrap;html=1;" vertex="1" parent="X7-3SCbGee9ea4Wvlvof-24">
          <mxGeometry y="26" width="210" height="74" as="geometry" />
        </mxCell>
        <mxCell id="X7-3SCbGee9ea4Wvlvof-26" value="" style="line;strokeWidth=1;fillColor=none;align=left;verticalAlign=middle;spacingTop=-1;spacingLeft=3;spacingRight=3;rotatable=0;labelPosition=right;points=[];portConstraint=eastwest;strokeColor=inherit;" vertex="1" parent="X7-3SCbGee9ea4Wvlvof-24">
          <mxGeometry y="100" width="210" height="8" as="geometry" />
        </mxCell>
        <mxCell id="X7-3SCbGee9ea4Wvlvof-27" value="&lt;div&gt;+risolvi(giocatore: Giocatore): void&lt;/div&gt;&lt;div&gt;+Contrabbandieri(void)&lt;/div&gt;" style="text;strokeColor=none;fillColor=none;align=left;verticalAlign=top;spacingLeft=4;spacingRight=4;overflow=hidden;rotatable=0;points=[[0,0.5],[1,0.5]];portConstraint=eastwest;whiteSpace=wrap;html=1;" vertex="1" parent="X7-3SCbGee9ea4Wvlvof-24">
          <mxGeometry y="108" width="210" height="42" as="geometry" />
        </mxCell>
        <mxCell id="X7-3SCbGee9ea4Wvlvof-28" value="SpazioAperto" style="swimlane;fontStyle=1;align=center;verticalAlign=top;childLayout=stackLayout;horizontal=1;startSize=26;horizontalStack=0;resizeParent=1;resizeParentMax=0;resizeLast=0;collapsible=1;marginBottom=0;whiteSpace=wrap;html=1;" vertex="1" parent="1">
          <mxGeometry x="2900" y="870" width="200" height="90" as="geometry" />
        </mxCell>
        <mxCell id="X7-3SCbGee9ea4Wvlvof-30" value="" style="line;strokeWidth=1;fillColor=none;align=left;verticalAlign=middle;spacingTop=-1;spacingLeft=3;spacingRight=3;rotatable=0;labelPosition=right;points=[];portConstraint=eastwest;strokeColor=inherit;" vertex="1" parent="X7-3SCbGee9ea4Wvlvof-28">
          <mxGeometry y="26" width="200" height="8" as="geometry" />
        </mxCell>
        <mxCell id="X7-3SCbGee9ea4Wvlvof-31" value="&lt;div&gt;+risolvi(giocatore: Giocatore): void&lt;/div&gt;&lt;div&gt;+SpazioAperto(void)&lt;/div&gt;" style="text;strokeColor=none;fillColor=none;align=left;verticalAlign=top;spacingLeft=4;spacingRight=4;overflow=hidden;rotatable=0;points=[[0,0.5],[1,0.5]];portConstraint=eastwest;whiteSpace=wrap;html=1;" vertex="1" parent="X7-3SCbGee9ea4Wvlvof-28">
          <mxGeometry y="34" width="200" height="56" as="geometry" />
        </mxCell>
        <mxCell id="X7-3SCbGee9ea4Wvlvof-32" value="PioggiaMeteoritiPiccola" style="swimlane;fontStyle=1;align=center;verticalAlign=top;childLayout=stackLayout;horizontal=1;startSize=26;horizontalStack=0;resizeParent=1;resizeParentMax=0;resizeLast=0;collapsible=1;marginBottom=0;whiteSpace=wrap;html=1;" vertex="1" parent="1">
          <mxGeometry x="-1920" y="810" width="270" height="130" as="geometry" />
        </mxCell>
        <mxCell id="X7-3SCbGee9ea4Wvlvof-33" value="&lt;div&gt;-tipoColpo: TipoElemento&lt;/div&gt;&lt;div&gt;-meteoriti: Colpi[3]&lt;/div&gt;" style="text;strokeColor=none;fillColor=none;align=left;verticalAlign=top;spacingLeft=4;spacingRight=4;overflow=hidden;rotatable=0;points=[[0,0.5],[1,0.5]];portConstraint=eastwest;whiteSpace=wrap;html=1;" vertex="1" parent="X7-3SCbGee9ea4Wvlvof-32">
          <mxGeometry y="26" width="270" height="44" as="geometry" />
        </mxCell>
        <mxCell id="X7-3SCbGee9ea4Wvlvof-34" value="" style="line;strokeWidth=1;fillColor=none;align=left;verticalAlign=middle;spacingTop=-1;spacingLeft=3;spacingRight=3;rotatable=0;labelPosition=right;points=[];portConstraint=eastwest;strokeColor=inherit;" vertex="1" parent="X7-3SCbGee9ea4Wvlvof-32">
          <mxGeometry y="70" width="270" height="8" as="geometry" />
        </mxCell>
        <mxCell id="X7-3SCbGee9ea4Wvlvof-35" value="&lt;div&gt;+risolvi(giocatore: Giocatore): void&lt;/div&gt;&lt;div&gt;+PioggiaMeteoritiPiccola&lt;/div&gt;" style="text;strokeColor=none;fillColor=none;align=left;verticalAlign=top;spacingLeft=4;spacingRight=4;overflow=hidden;rotatable=0;points=[[0,0.5],[1,0.5]];portConstraint=eastwest;whiteSpace=wrap;html=1;" vertex="1" parent="X7-3SCbGee9ea4Wvlvof-32">
          <mxGeometry y="78" width="270" height="52" as="geometry" />
        </mxCell>
        <mxCell id="X7-3SCbGee9ea4Wvlvof-36" value="ZonaDiGuerra" style="swimlane;fontStyle=1;align=center;verticalAlign=top;childLayout=stackLayout;horizontal=1;startSize=26;horizontalStack=0;resizeParent=1;resizeParentMax=0;resizeLast=0;collapsible=1;marginBottom=0;whiteSpace=wrap;html=1;" vertex="1" parent="1">
          <mxGeometry x="-820" y="770" width="260" height="190" as="geometry" />
        </mxCell>
        <mxCell id="X7-3SCbGee9ea4Wvlvof-37" value="&lt;div&gt;-giorniPersi: int&lt;/div&gt;&lt;div&gt;-pedinePerse: int&lt;/div&gt;&lt;div&gt;-cannonate: Colpi[2]&lt;/div&gt;&lt;div&gt;-tipoColpi: tipoElemento&lt;/div&gt;&lt;div&gt;-tipoPerdita: tipoElemento&lt;/div&gt;" style="text;strokeColor=none;fillColor=none;align=left;verticalAlign=top;spacingLeft=4;spacingRight=4;overflow=hidden;rotatable=0;points=[[0,0.5],[1,0.5]];portConstraint=eastwest;whiteSpace=wrap;html=1;" vertex="1" parent="X7-3SCbGee9ea4Wvlvof-36">
          <mxGeometry y="26" width="260" height="84" as="geometry" />
        </mxCell>
        <mxCell id="X7-3SCbGee9ea4Wvlvof-38" value="" style="line;strokeWidth=1;fillColor=none;align=left;verticalAlign=middle;spacingTop=-1;spacingLeft=3;spacingRight=3;rotatable=0;labelPosition=right;points=[];portConstraint=eastwest;strokeColor=inherit;" vertex="1" parent="X7-3SCbGee9ea4Wvlvof-36">
          <mxGeometry y="110" width="260" height="8" as="geometry" />
        </mxCell>
        <mxCell id="X7-3SCbGee9ea4Wvlvof-39" value="&lt;div&gt;+risolvi(giocatore: Giocatore): void&lt;/div&gt;&lt;div&gt;-calcolaMinimoPotenzaMotrice(void): giocatore&lt;/div&gt;&lt;div&gt;-calcolaMinimoPotenzaFuoco:(void): giocatore&lt;/div&gt;&lt;div&gt;+ZonaDiGuerra(void)&lt;/div&gt;" style="text;strokeColor=none;fillColor=none;align=left;verticalAlign=top;spacingLeft=4;spacingRight=4;overflow=hidden;rotatable=0;points=[[0,0.5],[1,0.5]];portConstraint=eastwest;whiteSpace=wrap;html=1;" vertex="1" parent="X7-3SCbGee9ea4Wvlvof-36">
          <mxGeometry y="118" width="260" height="72" as="geometry" />
        </mxCell>
        <mxCell id="X7-3SCbGee9ea4Wvlvof-40" value="PolevereStellare" style="swimlane;fontStyle=1;align=center;verticalAlign=top;childLayout=stackLayout;horizontal=1;startSize=26;horizontalStack=0;resizeParent=1;resizeParentMax=0;resizeLast=0;collapsible=1;marginBottom=0;whiteSpace=wrap;html=1;" vertex="1" parent="1">
          <mxGeometry x="1400" y="870" width="310" height="90" as="geometry" />
        </mxCell>
        <mxCell id="X7-3SCbGee9ea4Wvlvof-42" value="" style="line;strokeWidth=1;fillColor=none;align=left;verticalAlign=middle;spacingTop=-1;spacingLeft=3;spacingRight=3;rotatable=0;labelPosition=right;points=[];portConstraint=eastwest;strokeColor=inherit;" vertex="1" parent="X7-3SCbGee9ea4Wvlvof-40">
          <mxGeometry y="26" width="310" height="8" as="geometry" />
        </mxCell>
        <mxCell id="X7-3SCbGee9ea4Wvlvof-43" value="&lt;div&gt;+risolvi(giocatore: Giocatore): void&lt;/div&gt;&lt;div&gt;-calcolaConnettoriEsposti(giocatore: Giocatore): int&lt;/div&gt;&lt;div&gt;+PolvereStellare(void)&lt;/div&gt;" style="text;strokeColor=none;fillColor=none;align=left;verticalAlign=top;spacingLeft=4;spacingRight=4;overflow=hidden;rotatable=0;points=[[0,0.5],[1,0.5]];portConstraint=eastwest;whiteSpace=wrap;html=1;" vertex="1" parent="X7-3SCbGee9ea4Wvlvof-40">
          <mxGeometry y="34" width="310" height="56" as="geometry" />
        </mxCell>
        <mxCell id="X7-3SCbGee9ea4Wvlvof-44" value="PioggiaMeteoritiGrande" style="swimlane;fontStyle=1;align=center;verticalAlign=top;childLayout=stackLayout;horizontal=1;startSize=26;horizontalStack=0;resizeParent=1;resizeParentMax=0;resizeLast=0;collapsible=1;marginBottom=0;whiteSpace=wrap;html=1;" vertex="1" parent="1">
          <mxGeometry x="-1530" y="805" width="270" height="140" as="geometry" />
        </mxCell>
        <mxCell id="X7-3SCbGee9ea4Wvlvof-45" value="&lt;div&gt;-tipoColpo: TipoElemento&lt;/div&gt;&lt;div&gt;-meteoriti: Colpi[5]&lt;/div&gt;" style="text;strokeColor=none;fillColor=none;align=left;verticalAlign=top;spacingLeft=4;spacingRight=4;overflow=hidden;rotatable=0;points=[[0,0.5],[1,0.5]];portConstraint=eastwest;whiteSpace=wrap;html=1;" vertex="1" parent="X7-3SCbGee9ea4Wvlvof-44">
          <mxGeometry y="26" width="270" height="44" as="geometry" />
        </mxCell>
        <mxCell id="X7-3SCbGee9ea4Wvlvof-46" value="" style="line;strokeWidth=1;fillColor=none;align=left;verticalAlign=middle;spacingTop=-1;spacingLeft=3;spacingRight=3;rotatable=0;labelPosition=right;points=[];portConstraint=eastwest;strokeColor=inherit;" vertex="1" parent="X7-3SCbGee9ea4Wvlvof-44">
          <mxGeometry y="70" width="270" height="8" as="geometry" />
        </mxCell>
        <mxCell id="X7-3SCbGee9ea4Wvlvof-47" value="&lt;div&gt;+risolvi(giocatore: Giocatore): void&lt;/div&gt;&lt;div&gt;+PioggiaMeteoritiGrande(void)&lt;/div&gt;" style="text;strokeColor=none;fillColor=none;align=left;verticalAlign=top;spacingLeft=4;spacingRight=4;overflow=hidden;rotatable=0;points=[[0,0.5],[1,0.5]];portConstraint=eastwest;whiteSpace=wrap;html=1;" vertex="1" parent="X7-3SCbGee9ea4Wvlvof-44">
          <mxGeometry y="78" width="270" height="62" as="geometry" />
        </mxCell>
        <mxCell id="X7-3SCbGee9ea4Wvlvof-48" value="Schiavisti" style="swimlane;fontStyle=1;align=center;verticalAlign=top;childLayout=stackLayout;horizontal=1;startSize=26;horizontalStack=0;resizeParent=1;resizeParentMax=0;resizeLast=0;collapsible=1;marginBottom=0;whiteSpace=wrap;html=1;" vertex="1" parent="1">
          <mxGeometry x="150" y="810" width="230" height="170" as="geometry" />
        </mxCell>
        <mxCell id="X7-3SCbGee9ea4Wvlvof-49" value="&lt;div&gt;-giorniPersi: int&lt;/div&gt;&lt;div&gt;-guadagnoCrediti: int&lt;/div&gt;&lt;div&gt;-tipoRequisito: TipoElemento&lt;/div&gt;&lt;div&gt;-tipoPerdita: TipoElemento&lt;/div&gt;&lt;div&gt;-numPerdita: int&lt;/div&gt;&lt;div&gt;-numRequisito: int&lt;/div&gt;" style="text;strokeColor=none;fillColor=none;align=left;verticalAlign=top;spacingLeft=4;spacingRight=4;overflow=hidden;rotatable=0;points=[[0,0.5],[1,0.5]];portConstraint=eastwest;whiteSpace=wrap;html=1;" vertex="1" parent="X7-3SCbGee9ea4Wvlvof-48">
          <mxGeometry y="26" width="230" height="94" as="geometry" />
        </mxCell>
        <mxCell id="X7-3SCbGee9ea4Wvlvof-50" value="" style="line;strokeWidth=1;fillColor=none;align=left;verticalAlign=middle;spacingTop=-1;spacingLeft=3;spacingRight=3;rotatable=0;labelPosition=right;points=[];portConstraint=eastwest;strokeColor=inherit;" vertex="1" parent="X7-3SCbGee9ea4Wvlvof-48">
          <mxGeometry y="120" width="230" height="8" as="geometry" />
        </mxCell>
        <mxCell id="X7-3SCbGee9ea4Wvlvof-51" value="&lt;div&gt;+risolvi(giocatore: Giocatore): void&lt;/div&gt;&lt;div&gt;+Schiavisti(void)&lt;/div&gt;" style="text;strokeColor=none;fillColor=none;align=left;verticalAlign=top;spacingLeft=4;spacingRight=4;overflow=hidden;rotatable=0;points=[[0,0.5],[1,0.5]];portConstraint=eastwest;whiteSpace=wrap;html=1;" vertex="1" parent="X7-3SCbGee9ea4Wvlvof-48">
          <mxGeometry y="128" width="230" height="42" as="geometry" />
        </mxCell>
        <mxCell id="X7-3SCbGee9ea4Wvlvof-56" value="Epidemia" style="swimlane;fontStyle=1;align=center;verticalAlign=top;childLayout=stackLayout;horizontal=1;startSize=26;horizontalStack=0;resizeParent=1;resizeParentMax=0;resizeLast=0;collapsible=1;marginBottom=0;whiteSpace=wrap;html=1;" vertex="1" parent="1">
          <mxGeometry x="730" y="860" width="570" height="90" as="geometry" />
        </mxCell>
        <mxCell id="X7-3SCbGee9ea4Wvlvof-58" value="" style="line;strokeWidth=1;fillColor=none;align=left;verticalAlign=middle;spacingTop=-1;spacingLeft=3;spacingRight=3;rotatable=0;labelPosition=right;points=[];portConstraint=eastwest;strokeColor=inherit;" vertex="1" parent="X7-3SCbGee9ea4Wvlvof-56">
          <mxGeometry y="26" width="570" height="8" as="geometry" />
        </mxCell>
        <mxCell id="X7-3SCbGee9ea4Wvlvof-59" value="&lt;div&gt;+risolvi(giocatore: Giocatore): void&lt;/div&gt;&lt;div&gt;-rimuoviPedinePerAdiacenza(giocatore: Giocatore): void&lt;/div&gt;&lt;div&gt;+Epidemia(void): --inizializza tutti i parametri tranne quelli costanti, questo vale per tutti gli inizializzatori&lt;/div&gt;" style="text;strokeColor=none;fillColor=none;align=left;verticalAlign=top;spacingLeft=4;spacingRight=4;overflow=hidden;rotatable=0;points=[[0,0.5],[1,0.5]];portConstraint=eastwest;whiteSpace=wrap;html=1;" vertex="1" parent="X7-3SCbGee9ea4Wvlvof-56">
          <mxGeometry y="34" width="570" height="56" as="geometry" />
        </mxCell>
        <mxCell id="X7-3SCbGee9ea4Wvlvof-60" value="Sabotaggio" style="swimlane;fontStyle=1;align=center;verticalAlign=top;childLayout=stackLayout;horizontal=1;startSize=26;horizontalStack=0;resizeParent=1;resizeParentMax=0;resizeLast=0;collapsible=1;marginBottom=0;whiteSpace=wrap;html=1;" vertex="1" parent="1">
          <mxGeometry x="2010" y="840" width="260" height="100" as="geometry" />
        </mxCell>
        <mxCell id="X7-3SCbGee9ea4Wvlvof-62" value="" style="line;strokeWidth=1;fillColor=none;align=left;verticalAlign=middle;spacingTop=-1;spacingLeft=3;spacingRight=3;rotatable=0;labelPosition=right;points=[];portConstraint=eastwest;strokeColor=inherit;" vertex="1" parent="X7-3SCbGee9ea4Wvlvof-60">
          <mxGeometry y="26" width="260" height="8" as="geometry" />
        </mxCell>
        <mxCell id="X7-3SCbGee9ea4Wvlvof-63" value="&lt;div&gt;+risolvi(giocatore: Giocatore): void&lt;/div&gt;&lt;div&gt;-distruggiACaso(giocotare: Giocatore): void&lt;/div&gt;&lt;div&gt;+Sabotaggio(void)&lt;/div&gt;" style="text;strokeColor=none;fillColor=none;align=left;verticalAlign=top;spacingLeft=4;spacingRight=4;overflow=hidden;rotatable=0;points=[[0,0.5],[1,0.5]];portConstraint=eastwest;whiteSpace=wrap;html=1;" vertex="1" parent="X7-3SCbGee9ea4Wvlvof-60">
          <mxGeometry y="34" width="260" height="66" as="geometry" />
        </mxCell>
        <mxCell id="X7-3SCbGee9ea4Wvlvof-68" value="Colpo(package)" style="swimlane;fontStyle=1;align=center;verticalAlign=top;childLayout=stackLayout;horizontal=1;startSize=26;horizontalStack=0;resizeParent=1;resizeParentMax=0;resizeLast=0;collapsible=1;marginBottom=0;whiteSpace=wrap;html=1;" vertex="1" parent="1">
          <mxGeometry x="-1320" y="1950" width="250" height="140" as="geometry" />
        </mxCell>
        <mxCell id="X7-3SCbGee9ea4Wvlvof-69" value="&lt;div&gt;-orientamento: int&lt;/div&gt;&lt;div&gt;-grande: bool&lt;/div&gt;" style="text;strokeColor=none;fillColor=none;align=left;verticalAlign=top;spacingLeft=4;spacingRight=4;overflow=hidden;rotatable=0;points=[[0,0.5],[1,0.5]];portConstraint=eastwest;whiteSpace=wrap;html=1;" vertex="1" parent="X7-3SCbGee9ea4Wvlvof-68">
          <mxGeometry y="26" width="250" height="44" as="geometry" />
        </mxCell>
        <mxCell id="X7-3SCbGee9ea4Wvlvof-70" value="" style="line;strokeWidth=1;fillColor=none;align=left;verticalAlign=middle;spacingTop=-1;spacingLeft=3;spacingRight=3;rotatable=0;labelPosition=right;points=[];portConstraint=eastwest;strokeColor=inherit;" vertex="1" parent="X7-3SCbGee9ea4Wvlvof-68">
          <mxGeometry y="70" width="250" height="8" as="geometry" />
        </mxCell>
        <mxCell id="X7-3SCbGee9ea4Wvlvof-71" value="&lt;div&gt;+Colpo(orientamento: int, grande: bool)&lt;/div&gt;&lt;div&gt;+getOrientamento(void): int&lt;/div&gt;&lt;div&gt;+getDimensione(void): int&lt;/div&gt;" style="text;strokeColor=none;fillColor=none;align=left;verticalAlign=top;spacingLeft=4;spacingRight=4;overflow=hidden;rotatable=0;points=[[0,0.5],[1,0.5]];portConstraint=eastwest;whiteSpace=wrap;html=1;" vertex="1" parent="X7-3SCbGee9ea4Wvlvof-68">
          <mxGeometry y="78" width="250" height="62" as="geometry" />
        </mxCell>
        <mxCell id="X7-3SCbGee9ea4Wvlvof-72" value="TipoElemento(enumerazione)" style="swimlane;fontStyle=1;align=center;verticalAlign=top;childLayout=stackLayout;horizontal=1;startSize=20;horizontalStack=0;resizeParent=1;resizeParentMax=0;resizeLast=0;collapsible=1;marginBottom=0;whiteSpace=wrap;html=1;" vertex="1" parent="1">
          <mxGeometry x="-1900" y="1970" width="330" height="54" as="geometry" />
        </mxCell>
        <mxCell id="X7-3SCbGee9ea4Wvlvof-75" value="+ABITANTE, METEORITE, CANNONATA, MERCE, POTENZAFUOCO, POTENZAMOTRICE" style="text;strokeColor=none;fillColor=none;align=left;verticalAlign=top;spacingLeft=4;spacingRight=4;overflow=hidden;rotatable=0;points=[[0,0.5],[1,0.5]];portConstraint=eastwest;whiteSpace=wrap;html=1;" vertex="1" parent="X7-3SCbGee9ea4Wvlvof-72">
          <mxGeometry y="20" width="330" height="34" as="geometry" />
        </mxCell>
        <mxCell id="X7-3SCbGee9ea4Wvlvof-83" value="" style="endArrow=diamondThin;endFill=1;endSize=24;html=1;rounded=0;entryX=-0.012;entryY=0.887;entryDx=0;entryDy=0;entryPerimeter=0;exitX=1;exitY=0;exitDx=0;exitDy=0;" edge="1" parent="1" source="X7-3SCbGee9ea4Wvlvof-68" target="X7-3SCbGee9ea4Wvlvof-55">
          <mxGeometry width="160" relative="1" as="geometry">
            <mxPoint x="-1860" y="750" as="sourcePoint" />
            <mxPoint x="-1700" y="750" as="targetPoint" />
          </mxGeometry>
        </mxCell>
        <mxCell id="X7-3SCbGee9ea4Wvlvof-84" value="" style="endArrow=diamondThin;endFill=1;endSize=24;html=1;rounded=0;entryX=0;entryY=1;entryDx=0;entryDy=0;exitX=0.5;exitY=0;exitDx=0;exitDy=0;" edge="1" parent="1" source="X7-3SCbGee9ea4Wvlvof-68" target="X7-3SCbGee9ea4Wvlvof-44">
          <mxGeometry width="160" relative="1" as="geometry">
            <mxPoint x="-1860" y="775" as="sourcePoint" />
            <mxPoint x="-1700" y="775" as="targetPoint" />
          </mxGeometry>
        </mxCell>
        <mxCell id="X7-3SCbGee9ea4Wvlvof-85" value="" style="endArrow=diamondThin;endFill=1;endSize=24;html=1;rounded=0;entryX=0.341;entryY=1.154;entryDx=0;entryDy=0;entryPerimeter=0;exitX=0.25;exitY=0;exitDx=0;exitDy=0;" edge="1" parent="1" source="X7-3SCbGee9ea4Wvlvof-68" target="X7-3SCbGee9ea4Wvlvof-35">
          <mxGeometry width="160" relative="1" as="geometry">
            <mxPoint x="-1860" y="795" as="sourcePoint" />
            <mxPoint x="-1700" y="795" as="targetPoint" />
          </mxGeometry>
        </mxCell>
        <mxCell id="X7-3SCbGee9ea4Wvlvof-86" value="" style="endArrow=diamondThin;endFill=1;endSize=24;html=1;rounded=0;exitX=1;exitY=0.5;exitDx=0;exitDy=0;entryX=0.013;entryY=0.351;entryDx=0;entryDy=0;entryPerimeter=0;" edge="1" parent="1" source="X7-3SCbGee9ea4Wvlvof-69" target="X7-3SCbGee9ea4Wvlvof-37">
          <mxGeometry width="160" relative="1" as="geometry">
            <mxPoint x="-1950" y="1010" as="sourcePoint" />
            <mxPoint x="-1790" y="1010" as="targetPoint" />
          </mxGeometry>
        </mxCell>
        <mxCell id="X7-3SCbGee9ea4Wvlvof-87" value="Extends" style="endArrow=block;endSize=16;endFill=0;html=1;rounded=0;entryX=0.014;entryY=0.938;entryDx=0;entryDy=0;entryPerimeter=0;exitX=0.983;exitY=0.894;exitDx=0;exitDy=0;exitPerimeter=0;" edge="1" parent="1" source="X7-3SCbGee9ea4Wvlvof-53" target="X7-3SCbGee9ea4Wvlvof-9">
          <mxGeometry width="160" relative="1" as="geometry">
            <mxPoint x="-1000" y="580" as="sourcePoint" />
            <mxPoint x="-840" y="580" as="targetPoint" />
          </mxGeometry>
        </mxCell>
        <mxCell id="X7-3SCbGee9ea4Wvlvof-88" value="Extends" style="endArrow=block;endSize=16;endFill=0;html=1;rounded=0;exitX=1;exitY=0.5;exitDx=0;exitDy=0;entryX=0;entryY=0.5;entryDx=0;entryDy=0;" edge="1" parent="1" source="X7-3SCbGee9ea4Wvlvof-45" target="X7-3SCbGee9ea4Wvlvof-11">
          <mxGeometry width="160" relative="1" as="geometry">
            <mxPoint x="-1000" y="580" as="sourcePoint" />
            <mxPoint x="-840" y="580" as="targetPoint" />
          </mxGeometry>
        </mxCell>
        <mxCell id="X7-3SCbGee9ea4Wvlvof-89" value="Extends" style="endArrow=block;endSize=16;endFill=0;html=1;rounded=0;entryX=0.029;entryY=0.097;entryDx=0;entryDy=0;entryPerimeter=0;exitX=1;exitY=0.5;exitDx=0;exitDy=0;" edge="1" parent="1" source="X7-3SCbGee9ea4Wvlvof-33" target="X7-3SCbGee9ea4Wvlvof-11">
          <mxGeometry width="160" relative="1" as="geometry">
            <mxPoint x="-1000" y="580" as="sourcePoint" />
            <mxPoint x="-840" y="580" as="targetPoint" />
          </mxGeometry>
        </mxCell>
        <mxCell id="X7-3SCbGee9ea4Wvlvof-90" value="Extends" style="endArrow=block;endSize=16;endFill=0;html=1;rounded=0;entryX=0;entryY=0.5;entryDx=0;entryDy=0;exitX=0.354;exitY=0.944;exitDx=0;exitDy=0;exitPerimeter=0;" edge="1" parent="1" source="X7-3SCbGee9ea4Wvlvof-39" target="X7-3SCbGee9ea4Wvlvof-9">
          <mxGeometry width="160" relative="1" as="geometry">
            <mxPoint x="-1000" y="580" as="sourcePoint" />
            <mxPoint x="-840" y="580" as="targetPoint" />
          </mxGeometry>
        </mxCell>
        <mxCell id="X7-3SCbGee9ea4Wvlvof-92" value="Extends" style="endArrow=block;endSize=16;endFill=0;html=1;rounded=0;entryX=0.5;entryY=0;entryDx=0;entryDy=0;exitX=0.5;exitY=0;exitDx=0;exitDy=0;" edge="1" parent="1" source="X7-3SCbGee9ea4Wvlvof-20" target="X7-3SCbGee9ea4Wvlvof-8">
          <mxGeometry width="160" relative="1" as="geometry">
            <mxPoint x="-480" y="860" as="sourcePoint" />
            <mxPoint x="-320" y="860" as="targetPoint" />
          </mxGeometry>
        </mxCell>
        <mxCell id="X7-3SCbGee9ea4Wvlvof-93" value="Extends" style="endArrow=block;endSize=16;endFill=0;html=1;rounded=0;entryX=0.25;entryY=0;entryDx=0;entryDy=0;exitX=0;exitY=0.5;exitDx=0;exitDy=0;" edge="1" parent="1" source="X7-3SCbGee9ea4Wvlvof-31" target="X7-3SCbGee9ea4Wvlvof-8">
          <mxGeometry width="160" relative="1" as="geometry">
            <mxPoint x="-480" y="860" as="sourcePoint" />
            <mxPoint x="-320" y="860" as="targetPoint" />
          </mxGeometry>
        </mxCell>
        <mxCell id="X7-3SCbGee9ea4Wvlvof-94" value="Extends" style="endArrow=block;endSize=16;endFill=0;html=1;rounded=0;exitX=0.462;exitY=0.881;exitDx=0;exitDy=0;exitPerimeter=0;entryX=0.75;entryY=0;entryDx=0;entryDy=0;" edge="1" parent="1" source="X7-3SCbGee9ea4Wvlvof-27" target="X7-3SCbGee9ea4Wvlvof-8">
          <mxGeometry width="160" relative="1" as="geometry">
            <mxPoint x="-480" y="860" as="sourcePoint" />
            <mxPoint x="-616" y="-941" as="targetPoint" />
          </mxGeometry>
        </mxCell>
        <mxCell id="X7-3SCbGee9ea4Wvlvof-95" value="Extends" style="endArrow=block;endSize=16;endFill=0;html=1;rounded=0;entryX=1.014;entryY=0.875;entryDx=0;entryDy=0;entryPerimeter=0;exitX=0.65;exitY=1.071;exitDx=0;exitDy=0;exitPerimeter=0;" edge="1" parent="1" source="X7-3SCbGee9ea4Wvlvof-15" target="X7-3SCbGee9ea4Wvlvof-9">
          <mxGeometry width="160" relative="1" as="geometry">
            <mxPoint x="-480" y="860" as="sourcePoint" />
            <mxPoint x="-320" y="860" as="targetPoint" />
          </mxGeometry>
        </mxCell>
        <mxCell id="X7-3SCbGee9ea4Wvlvof-96" value="Extends" style="endArrow=block;endSize=16;endFill=0;html=1;rounded=0;entryX=1.019;entryY=0.278;entryDx=0;entryDy=0;entryPerimeter=0;exitX=-0.005;exitY=0.869;exitDx=0;exitDy=0;exitPerimeter=0;" edge="1" parent="1" source="X7-3SCbGee9ea4Wvlvof-17" target="X7-3SCbGee9ea4Wvlvof-11">
          <mxGeometry width="160" relative="1" as="geometry">
            <mxPoint x="-480" y="860" as="sourcePoint" />
            <mxPoint x="-320" y="860" as="targetPoint" />
          </mxGeometry>
        </mxCell>
        <mxCell id="X7-3SCbGee9ea4Wvlvof-97" value="Extends" style="endArrow=block;endSize=16;endFill=0;html=1;rounded=0;entryX=1;entryY=0.5;entryDx=0;entryDy=0;exitX=0.022;exitY=0.723;exitDx=0;exitDy=0;exitPerimeter=0;" edge="1" parent="1" source="X7-3SCbGee9ea4Wvlvof-49" target="X7-3SCbGee9ea4Wvlvof-11">
          <mxGeometry width="160" relative="1" as="geometry">
            <mxPoint x="-480" y="860" as="sourcePoint" />
            <mxPoint x="-320" y="860" as="targetPoint" />
          </mxGeometry>
        </mxCell>
        <mxCell id="X7-3SCbGee9ea4Wvlvof-98" value="Extends" style="endArrow=block;endSize=16;endFill=0;html=1;rounded=0;entryX=0.995;entryY=0.047;entryDx=0;entryDy=0;entryPerimeter=0;exitX=0;exitY=0.5;exitDx=0;exitDy=0;" edge="1" parent="1" source="X7-3SCbGee9ea4Wvlvof-63" target="X7-3SCbGee9ea4Wvlvof-9">
          <mxGeometry width="160" relative="1" as="geometry">
            <mxPoint x="-480" y="860" as="sourcePoint" />
            <mxPoint x="-320" y="860" as="targetPoint" />
          </mxGeometry>
        </mxCell>
        <mxCell id="X7-3SCbGee9ea4Wvlvof-99" value="Extends" style="endArrow=block;endSize=16;endFill=0;html=1;rounded=0;exitX=0.135;exitY=0.964;exitDx=0;exitDy=0;entryX=0.833;entryY=-0.006;entryDx=0;entryDy=0;entryPerimeter=0;exitPerimeter=0;" edge="1" parent="1" source="X7-3SCbGee9ea4Wvlvof-59" target="X7-3SCbGee9ea4Wvlvof-8">
          <mxGeometry width="160" relative="1" as="geometry">
            <mxPoint x="-480" y="860" as="sourcePoint" />
            <mxPoint x="-552" y="-1050" as="targetPoint" />
          </mxGeometry>
        </mxCell>
        <mxCell id="X7-3SCbGee9ea4Wvlvof-100" value="Extends" style="endArrow=block;endSize=16;endFill=0;html=1;rounded=0;entryX=1;entryY=0.5;entryDx=0;entryDy=0;exitX=0.006;exitY=0.214;exitDx=0;exitDy=0;exitPerimeter=0;" edge="1" parent="1" source="X7-3SCbGee9ea4Wvlvof-43" target="X7-3SCbGee9ea4Wvlvof-9">
          <mxGeometry width="160" relative="1" as="geometry">
            <mxPoint x="-260" y="860" as="sourcePoint" />
            <mxPoint x="-100" y="860" as="targetPoint" />
          </mxGeometry>
        </mxCell>
        <mxCell id="X7-3SCbGee9ea4Wvlvof-102" value="" style="endArrow=block;dashed=1;endFill=0;endSize=12;html=1;rounded=0;exitX=0.967;exitY=0.065;exitDx=0;exitDy=0;exitPerimeter=0;entryX=0.25;entryY=1;entryDx=0;entryDy=0;" edge="1" parent="1" source="X7-3SCbGee9ea4Wvlvof-55" target="X7-3SCbGee9ea4Wvlvof-1">
          <mxGeometry width="160" relative="1" as="geometry">
            <mxPoint x="-1160" y="710" as="sourcePoint" />
            <mxPoint x="-1000" y="710" as="targetPoint" />
          </mxGeometry>
        </mxCell>
        <mxCell id="X7-3SCbGee9ea4Wvlvof-103" value="" style="endArrow=block;dashed=1;endFill=0;endSize=12;html=1;rounded=0;exitX=0.875;exitY=0.011;exitDx=0;exitDy=0;exitPerimeter=0;entryX=0.25;entryY=1;entryDx=0;entryDy=0;" edge="1" parent="1" source="X7-3SCbGee9ea4Wvlvof-52" target="X7-3SCbGee9ea4Wvlvof-3">
          <mxGeometry width="160" relative="1" as="geometry">
            <mxPoint x="-1458" y="372" as="sourcePoint" />
            <mxPoint x="-165" y="135" as="targetPoint" />
          </mxGeometry>
        </mxCell>
        <mxCell id="X7-3SCbGee9ea4Wvlvof-104" value="" style="endArrow=block;dashed=1;endFill=0;endSize=12;html=1;rounded=0;exitX=0.75;exitY=0;exitDx=0;exitDy=0;entryX=0.409;entryY=0.956;entryDx=0;entryDy=0;entryPerimeter=0;" edge="1" parent="1" source="X7-3SCbGee9ea4Wvlvof-52" target="X7-3SCbGee9ea4Wvlvof-5">
          <mxGeometry width="160" relative="1" as="geometry">
            <mxPoint x="-1448" y="382" as="sourcePoint" />
            <mxPoint x="-492" y="130" as="targetPoint" />
          </mxGeometry>
        </mxCell>
        <mxCell id="X7-3SCbGee9ea4Wvlvof-106" value="" style="endArrow=block;dashed=1;endFill=0;endSize=12;html=1;rounded=0;exitX=1;exitY=0;exitDx=0;exitDy=0;entryX=0.057;entryY=1;entryDx=0;entryDy=0;entryPerimeter=0;" edge="1" parent="1" source="X7-3SCbGee9ea4Wvlvof-52" target="X7-3SCbGee9ea4Wvlvof-2">
          <mxGeometry width="160" relative="1" as="geometry">
            <mxPoint x="-1440" y="399" as="sourcePoint" />
            <mxPoint x="-838" y="136" as="targetPoint" />
          </mxGeometry>
        </mxCell>
        <mxCell id="X7-3SCbGee9ea4Wvlvof-107" value="" style="endArrow=block;dashed=1;endFill=0;endSize=12;html=1;rounded=0;entryX=0.858;entryY=0.938;entryDx=0;entryDy=0;entryPerimeter=0;exitX=0.75;exitY=0;exitDx=0;exitDy=0;" edge="1" parent="1" source="X7-3SCbGee9ea4Wvlvof-12" target="X7-3SCbGee9ea4Wvlvof-3">
          <mxGeometry width="160" relative="1" as="geometry">
            <mxPoint x="-410" y="620" as="sourcePoint" />
            <mxPoint x="-250" y="620" as="targetPoint" />
          </mxGeometry>
        </mxCell>
        <mxCell id="X7-3SCbGee9ea4Wvlvof-108" value="" style="endArrow=block;dashed=1;endFill=0;endSize=12;html=1;rounded=0;entryX=0.459;entryY=0.967;entryDx=0;entryDy=0;entryPerimeter=0;exitX=0.936;exitY=0.033;exitDx=0;exitDy=0;exitPerimeter=0;" edge="1" parent="1" source="X7-3SCbGee9ea4Wvlvof-12" target="X7-3SCbGee9ea4Wvlvof-1">
          <mxGeometry width="160" relative="1" as="geometry">
            <mxPoint x="-395" y="280" as="sourcePoint" />
            <mxPoint x="-304" y="125" as="targetPoint" />
          </mxGeometry>
        </mxCell>
        <mxCell id="X7-3SCbGee9ea4Wvlvof-109" value="" style="endArrow=block;dashed=1;endFill=0;endSize=12;html=1;rounded=0;exitX=1;exitY=0.5;exitDx=0;exitDy=0;entryX=0.571;entryY=0.978;entryDx=0;entryDy=0;entryPerimeter=0;" edge="1" parent="1" source="X7-3SCbGee9ea4Wvlvof-47" target="X7-3SCbGee9ea4Wvlvof-5">
          <mxGeometry width="160" relative="1" as="geometry">
            <mxPoint x="-780" y="620" as="sourcePoint" />
            <mxPoint x="-620" y="620" as="targetPoint" />
          </mxGeometry>
        </mxCell>
        <mxCell id="X7-3SCbGee9ea4Wvlvof-110" value="" style="endArrow=block;dashed=1;endFill=0;endSize=12;html=1;rounded=0;exitX=0.922;exitY=0.008;exitDx=0;exitDy=0;entryX=0.645;entryY=1.067;entryDx=0;entryDy=0;entryPerimeter=0;exitPerimeter=0;" edge="1" parent="1" source="X7-3SCbGee9ea4Wvlvof-32" target="X7-3SCbGee9ea4Wvlvof-5">
          <mxGeometry width="160" relative="1" as="geometry">
            <mxPoint x="-1390" y="654" as="sourcePoint" />
            <mxPoint x="-766" y="138" as="targetPoint" />
          </mxGeometry>
        </mxCell>
        <mxCell id="X7-3SCbGee9ea4Wvlvof-112" value="" style="endArrow=block;dashed=1;endFill=0;endSize=12;html=1;rounded=0;entryX=0.218;entryY=1.044;entryDx=0;entryDy=0;entryPerimeter=0;exitX=0.75;exitY=0;exitDx=0;exitDy=0;" edge="1" parent="1" source="X7-3SCbGee9ea4Wvlvof-36" target="X7-3SCbGee9ea4Wvlvof-1">
          <mxGeometry width="160" relative="1" as="geometry">
            <mxPoint x="-780" y="620" as="sourcePoint" />
            <mxPoint x="-620" y="620" as="targetPoint" />
          </mxGeometry>
        </mxCell>
        <mxCell id="X7-3SCbGee9ea4Wvlvof-113" value="" style="endArrow=block;dashed=1;endFill=0;endSize=12;html=1;rounded=0;entryX=0.75;entryY=1;entryDx=0;entryDy=0;exitX=0.938;exitY=0.012;exitDx=0;exitDy=0;exitPerimeter=0;" edge="1" parent="1" source="X7-3SCbGee9ea4Wvlvof-37" target="X7-3SCbGee9ea4Wvlvof-5">
          <mxGeometry width="160" relative="1" as="geometry">
            <mxPoint x="-1485" y="1050" as="sourcePoint" />
            <mxPoint x="-176" y="139" as="targetPoint" />
          </mxGeometry>
        </mxCell>
        <mxCell id="X7-3SCbGee9ea4Wvlvof-114" value="" style="endArrow=block;dashed=1;endFill=0;endSize=12;html=1;rounded=0;entryX=0;entryY=1;entryDx=0;entryDy=0;exitX=0.923;exitY=0.037;exitDx=0;exitDy=0;exitPerimeter=0;" edge="1" parent="1" source="X7-3SCbGee9ea4Wvlvof-36" target="X7-3SCbGee9ea4Wvlvof-6">
          <mxGeometry width="160" relative="1" as="geometry">
            <mxPoint x="-1436" y="1077" as="sourcePoint" />
            <mxPoint x="-686" y="140" as="targetPoint" />
          </mxGeometry>
        </mxCell>
        <mxCell id="X7-3SCbGee9ea4Wvlvof-115" value="" style="endArrow=block;dashed=1;endFill=0;endSize=12;html=1;rounded=0;exitX=0.75;exitY=0;exitDx=0;exitDy=0;entryX=0.344;entryY=0.944;entryDx=0;entryDy=0;entryPerimeter=0;" edge="1" parent="1" source="X7-3SCbGee9ea4Wvlvof-28" target="X7-3SCbGee9ea4Wvlvof-1">
          <mxGeometry width="160" relative="1" as="geometry">
            <mxPoint x="-870" y="700" as="sourcePoint" />
            <mxPoint x="-710" y="700" as="targetPoint" />
          </mxGeometry>
        </mxCell>
        <mxCell id="X7-3SCbGee9ea4Wvlvof-116" value="" style="endArrow=block;dashed=1;endFill=0;endSize=12;html=1;rounded=0;exitX=0.75;exitY=0;exitDx=0;exitDy=0;entryX=0.826;entryY=0.956;entryDx=0;entryDy=0;entryPerimeter=0;" edge="1" parent="1" source="X7-3SCbGee9ea4Wvlvof-20" target="X7-3SCbGee9ea4Wvlvof-1">
          <mxGeometry width="160" relative="1" as="geometry">
            <mxPoint x="-870" y="700" as="sourcePoint" />
            <mxPoint x="-710" y="700" as="targetPoint" />
          </mxGeometry>
        </mxCell>
        <mxCell id="X7-3SCbGee9ea4Wvlvof-117" value="" style="endArrow=block;dashed=1;endFill=0;endSize=12;html=1;rounded=0;exitX=0.927;exitY=0.015;exitDx=0;exitDy=0;entryX=0.106;entryY=0.929;entryDx=0;entryDy=0;entryPerimeter=0;exitPerimeter=0;" edge="1" parent="1" source="X7-3SCbGee9ea4Wvlvof-20" target="X7-3SCbGee9ea4Wvlvof-2">
          <mxGeometry width="160" relative="1" as="geometry">
            <mxPoint x="-875" y="1090" as="sourcePoint" />
            <mxPoint x="31" y="131" as="targetPoint" />
          </mxGeometry>
        </mxCell>
        <mxCell id="X7-3SCbGee9ea4Wvlvof-118" value="" style="endArrow=block;dashed=1;endFill=0;endSize=12;html=1;rounded=0;exitX=0.941;exitY=0.046;exitDx=0;exitDy=0;entryX=0.105;entryY=0.956;entryDx=0;entryDy=0;entryPerimeter=0;exitPerimeter=0;" edge="1" parent="1" source="X7-3SCbGee9ea4Wvlvof-20" target="X7-3SCbGee9ea4Wvlvof-4">
          <mxGeometry width="160" relative="1" as="geometry">
            <mxPoint x="-836" y="1092" as="sourcePoint" />
            <mxPoint x="164" y="130" as="targetPoint" />
          </mxGeometry>
        </mxCell>
        <mxCell id="X7-3SCbGee9ea4Wvlvof-119" value="" style="endArrow=block;dashed=1;endFill=0;endSize=12;html=1;rounded=0;entryX=0.618;entryY=0.944;entryDx=0;entryDy=0;entryPerimeter=0;exitX=0.75;exitY=0;exitDx=0;exitDy=0;" edge="1" parent="1" source="X7-3SCbGee9ea4Wvlvof-24" target="X7-3SCbGee9ea4Wvlvof-1">
          <mxGeometry width="160" relative="1" as="geometry">
            <mxPoint x="-390" y="730" as="sourcePoint" />
            <mxPoint x="-230" y="730" as="targetPoint" />
          </mxGeometry>
        </mxCell>
        <mxCell id="X7-3SCbGee9ea4Wvlvof-120" value="" style="endArrow=block;dashed=1;endFill=0;endSize=12;html=1;rounded=0;entryX=0.471;entryY=1.071;entryDx=0;entryDy=0;entryPerimeter=0;exitX=0.61;exitY=-0.033;exitDx=0;exitDy=0;exitPerimeter=0;" edge="1" parent="1" source="X7-3SCbGee9ea4Wvlvof-24" target="X7-3SCbGee9ea4Wvlvof-2">
          <mxGeometry width="160" relative="1" as="geometry">
            <mxPoint x="-390" y="730" as="sourcePoint" />
            <mxPoint x="-230" y="730" as="targetPoint" />
          </mxGeometry>
        </mxCell>
        <mxCell id="X7-3SCbGee9ea4Wvlvof-121" value="" style="endArrow=block;dashed=1;endFill=0;endSize=12;html=1;rounded=0;entryX=0;entryY=1;entryDx=0;entryDy=0;exitX=1;exitY=0;exitDx=0;exitDy=0;" edge="1" parent="1" source="X7-3SCbGee9ea4Wvlvof-24" target="X7-3SCbGee9ea4Wvlvof-4">
          <mxGeometry width="160" relative="1" as="geometry">
            <mxPoint x="-222" y="1185" as="sourcePoint" />
            <mxPoint x="350" y="140" as="targetPoint" />
          </mxGeometry>
        </mxCell>
        <mxCell id="X7-3SCbGee9ea4Wvlvof-122" value="" style="endArrow=block;dashed=1;endFill=0;endSize=12;html=1;rounded=0;entryX=1;entryY=0;entryDx=0;entryDy=0;exitX=0.25;exitY=0;exitDx=0;exitDy=0;" edge="1" parent="1" source="X7-3SCbGee9ea4Wvlvof-24" target="X7-3SCbGee9ea4Wvlvof-6">
          <mxGeometry width="160" relative="1" as="geometry">
            <mxPoint x="-140" y="1190" as="sourcePoint" />
            <mxPoint x="640" y="155" as="targetPoint" />
          </mxGeometry>
        </mxCell>
        <mxCell id="X7-3SCbGee9ea4Wvlvof-123" value="" style="endArrow=block;dashed=1;endFill=0;endSize=12;html=1;rounded=0;entryX=0.5;entryY=1;entryDx=0;entryDy=0;exitX=0.25;exitY=0;exitDx=0;exitDy=0;" edge="1" parent="1" source="X7-3SCbGee9ea4Wvlvof-48" target="X7-3SCbGee9ea4Wvlvof-1">
          <mxGeometry width="160" relative="1" as="geometry">
            <mxPoint x="20" y="845" as="sourcePoint" />
            <mxPoint x="-30" y="240" as="targetPoint" />
          </mxGeometry>
        </mxCell>
        <mxCell id="X7-3SCbGee9ea4Wvlvof-124" value="" style="endArrow=block;dashed=1;endFill=0;endSize=12;html=1;rounded=0;entryX=0.25;entryY=1;entryDx=0;entryDy=0;exitX=0.5;exitY=0;exitDx=0;exitDy=0;" edge="1" parent="1" source="X7-3SCbGee9ea4Wvlvof-48" target="X7-3SCbGee9ea4Wvlvof-2">
          <mxGeometry width="160" relative="1" as="geometry">
            <mxPoint x="288" y="1190" as="sourcePoint" />
            <mxPoint x="-80" y="135" as="targetPoint" />
          </mxGeometry>
        </mxCell>
        <mxCell id="X7-3SCbGee9ea4Wvlvof-125" value="" style="endArrow=block;dashed=1;endFill=0;endSize=12;html=1;rounded=0;entryX=0.5;entryY=1;entryDx=0;entryDy=0;exitX=0.75;exitY=0;exitDx=0;exitDy=0;" edge="1" parent="1" source="X7-3SCbGee9ea4Wvlvof-48" target="X7-3SCbGee9ea4Wvlvof-3">
          <mxGeometry width="160" relative="1" as="geometry">
            <mxPoint x="345" y="1190" as="sourcePoint" />
            <mxPoint x="238" y="135" as="targetPoint" />
          </mxGeometry>
        </mxCell>
        <mxCell id="X7-3SCbGee9ea4Wvlvof-126" value="" style="endArrow=block;dashed=1;endFill=0;endSize=12;html=1;rounded=0;entryX=1;entryY=0.25;entryDx=0;entryDy=0;exitX=0;exitY=0;exitDx=0;exitDy=0;" edge="1" parent="1" source="X7-3SCbGee9ea4Wvlvof-48" target="X7-3SCbGee9ea4Wvlvof-6">
          <mxGeometry width="160" relative="1" as="geometry">
            <mxPoint x="403" y="1190" as="sourcePoint" />
            <mxPoint x="-415" y="130" as="targetPoint" />
          </mxGeometry>
        </mxCell>
        <mxCell id="X7-3SCbGee9ea4Wvlvof-127" value="" style="endArrow=block;dashed=1;endFill=0;endSize=12;html=1;rounded=0;entryX=0.75;entryY=1;entryDx=0;entryDy=0;exitX=0;exitY=0;exitDx=0;exitDy=0;" edge="1" parent="1" source="X7-3SCbGee9ea4Wvlvof-16" target="X7-3SCbGee9ea4Wvlvof-1">
          <mxGeometry width="160" relative="1" as="geometry">
            <mxPoint x="-80" y="670" as="sourcePoint" />
            <mxPoint x="80" y="670" as="targetPoint" />
          </mxGeometry>
        </mxCell>
        <mxCell id="X7-3SCbGee9ea4Wvlvof-128" value="" style="endArrow=block;dashed=1;endFill=0;endSize=12;html=1;rounded=0;entryX=0.75;entryY=1;entryDx=0;entryDy=0;exitX=0.25;exitY=0;exitDx=0;exitDy=0;" edge="1" parent="1" source="X7-3SCbGee9ea4Wvlvof-16" target="X7-3SCbGee9ea4Wvlvof-3">
          <mxGeometry width="160" relative="1" as="geometry">
            <mxPoint x="310" y="590" as="sourcePoint" />
            <mxPoint x="5" y="135" as="targetPoint" />
          </mxGeometry>
        </mxCell>
        <mxCell id="X7-3SCbGee9ea4Wvlvof-129" value="" style="endArrow=block;dashed=1;endFill=0;endSize=12;html=1;rounded=0;exitX=0.5;exitY=0;exitDx=0;exitDy=0;entryX=0.75;entryY=0;entryDx=0;entryDy=0;" edge="1" parent="1" source="X7-3SCbGee9ea4Wvlvof-16" target="X7-3SCbGee9ea4Wvlvof-6">
          <mxGeometry width="160" relative="1" as="geometry">
            <mxPoint x="320" y="600" as="sourcePoint" />
            <mxPoint x="530" y="500" as="targetPoint" />
          </mxGeometry>
        </mxCell>
        <mxCell id="X7-3SCbGee9ea4Wvlvof-130" value="" style="endArrow=block;dashed=1;endFill=0;endSize=12;html=1;rounded=0;entryX=0.671;entryY=0.956;entryDx=0;entryDy=0;entryPerimeter=0;exitX=0;exitY=0;exitDx=0;exitDy=0;" edge="1" parent="1" source="X7-3SCbGee9ea4Wvlvof-40" target="X7-3SCbGee9ea4Wvlvof-1">
          <mxGeometry width="160" relative="1" as="geometry">
            <mxPoint x="130" y="670" as="sourcePoint" />
            <mxPoint x="290" y="670" as="targetPoint" />
          </mxGeometry>
        </mxCell>
        <mxCell id="X7-3SCbGee9ea4Wvlvof-131" value="" style="endArrow=diamondThin;endFill=1;endSize=24;html=1;rounded=0;entryX=0.867;entryY=1.032;entryDx=0;entryDy=0;entryPerimeter=0;exitX=0.5;exitY=0;exitDx=0;exitDy=0;" edge="1" parent="1" source="X7-3SCbGee9ea4Wvlvof-72" target="X7-3SCbGee9ea4Wvlvof-55">
          <mxGeometry width="160" relative="1" as="geometry">
            <mxPoint x="-1130" y="1030" as="sourcePoint" />
            <mxPoint x="-970" y="1030" as="targetPoint" />
          </mxGeometry>
        </mxCell>
        <mxCell id="X7-3SCbGee9ea4Wvlvof-132" value="" style="endArrow=diamondThin;endFill=1;endSize=24;html=1;rounded=0;entryX=0.496;entryY=0.984;entryDx=0;entryDy=0;entryPerimeter=0;exitX=0.25;exitY=0;exitDx=0;exitDy=0;" edge="1" parent="1" source="X7-3SCbGee9ea4Wvlvof-72" target="X7-3SCbGee9ea4Wvlvof-47">
          <mxGeometry width="160" relative="1" as="geometry">
            <mxPoint x="-715" y="1630" as="sourcePoint" />
            <mxPoint x="-1472" y="432" as="targetPoint" />
          </mxGeometry>
        </mxCell>
        <mxCell id="X7-3SCbGee9ea4Wvlvof-133" value="" style="endArrow=diamondThin;endFill=1;endSize=24;html=1;rounded=0;entryX=0.507;entryY=0.942;entryDx=0;entryDy=0;entryPerimeter=0;exitX=0;exitY=0;exitDx=0;exitDy=0;" edge="1" parent="1" source="X7-3SCbGee9ea4Wvlvof-72" target="X7-3SCbGee9ea4Wvlvof-35">
          <mxGeometry width="160" relative="1" as="geometry">
            <mxPoint x="-797" y="1630" as="sourcePoint" />
            <mxPoint x="-1526" y="684" as="targetPoint" />
          </mxGeometry>
        </mxCell>
        <mxCell id="X7-3SCbGee9ea4Wvlvof-134" value="" style="endArrow=diamondThin;endFill=1;endSize=24;html=1;rounded=0;entryX=0.177;entryY=1.069;entryDx=0;entryDy=0;exitX=0;exitY=0.5;exitDx=0;exitDy=0;entryPerimeter=0;" edge="1" parent="1" source="X7-3SCbGee9ea4Wvlvof-75" target="X7-3SCbGee9ea4Wvlvof-39">
          <mxGeometry width="160" relative="1" as="geometry">
            <mxPoint x="-880" y="1630" as="sourcePoint" />
            <mxPoint x="-1558" y="947" as="targetPoint" />
          </mxGeometry>
        </mxCell>
        <mxCell id="X7-3SCbGee9ea4Wvlvof-135" value="" style="endArrow=diamondThin;endFill=1;endSize=24;html=1;rounded=0;entryX=0.323;entryY=0.976;entryDx=0;entryDy=0;entryPerimeter=0;" edge="1" parent="1" source="X7-3SCbGee9ea4Wvlvof-75" target="X7-3SCbGee9ea4Wvlvof-23">
          <mxGeometry width="160" relative="1" as="geometry">
            <mxPoint x="-880" y="1667" as="sourcePoint" />
            <mxPoint x="-1420" y="1204" as="targetPoint" />
          </mxGeometry>
        </mxCell>
        <mxCell id="X7-3SCbGee9ea4Wvlvof-136" value="" style="endArrow=diamondThin;endFill=1;endSize=24;html=1;rounded=0;entryX=0;entryY=0.5;entryDx=0;entryDy=0;exitX=1;exitY=0.5;exitDx=0;exitDy=0;" edge="1" parent="1" source="X7-3SCbGee9ea4Wvlvof-75" target="X7-3SCbGee9ea4Wvlvof-25">
          <mxGeometry width="160" relative="1" as="geometry">
            <mxPoint x="-1130" y="910" as="sourcePoint" />
            <mxPoint x="-970" y="910" as="targetPoint" />
          </mxGeometry>
        </mxCell>
        <mxCell id="X7-3SCbGee9ea4Wvlvof-137" value="" style="endArrow=diamondThin;endFill=1;endSize=24;html=1;rounded=0;entryX=0;entryY=0.5;entryDx=0;entryDy=0;exitX=1;exitY=0.5;exitDx=0;exitDy=0;" edge="1" parent="1" source="X7-3SCbGee9ea4Wvlvof-75" target="X7-3SCbGee9ea4Wvlvof-49">
          <mxGeometry width="160" relative="1" as="geometry">
            <mxPoint x="-690" y="760" as="sourcePoint" />
            <mxPoint x="-530" y="760" as="targetPoint" />
          </mxGeometry>
        </mxCell>
        <mxCell id="X7-3SCbGee9ea4Wvlvof-138" value="" style="endArrow=diamondThin;endFill=1;endSize=24;html=1;rounded=0;entryX=0;entryY=0.5;entryDx=0;entryDy=0;exitX=1;exitY=0;exitDx=0;exitDy=0;" edge="1" parent="1" source="X7-3SCbGee9ea4Wvlvof-72" target="X7-3SCbGee9ea4Wvlvof-17">
          <mxGeometry width="160" relative="1" as="geometry">
            <mxPoint x="-900" y="1007" as="sourcePoint" />
            <mxPoint x="10" y="1213" as="targetPoint" />
          </mxGeometry>
        </mxCell>
        <mxCell id="X7-3SCbGee9ea4Wvlvof-139" value="" style="endArrow=block;dashed=1;endFill=0;endSize=12;html=1;rounded=0;entryX=0.5;entryY=1;entryDx=0;entryDy=0;exitX=0.5;exitY=0;exitDx=0;exitDy=0;" edge="1" parent="1" source="X7-3SCbGee9ea4Wvlvof-52" target="X7-3SCbGee9ea4Wvlvof-7">
          <mxGeometry width="160" relative="1" as="geometry">
            <mxPoint x="-860" y="550" as="sourcePoint" />
            <mxPoint x="-700" y="550" as="targetPoint" />
          </mxGeometry>
        </mxCell>
        <mxCell id="X7-3SCbGee9ea4Wvlvof-140" value="" style="endArrow=block;dashed=1;endFill=0;endSize=12;html=1;rounded=0;entryX=0.75;entryY=1;entryDx=0;entryDy=0;exitX=0;exitY=0.5;exitDx=0;exitDy=0;" edge="1" parent="1" source="X7-3SCbGee9ea4Wvlvof-63" target="X7-3SCbGee9ea4Wvlvof-7">
          <mxGeometry width="160" relative="1" as="geometry">
            <mxPoint x="280" y="320" as="sourcePoint" />
            <mxPoint x="-1155" y="120" as="targetPoint" />
          </mxGeometry>
        </mxCell>
        <mxCell id="X7-3SCbGee9ea4Wvlvof-52" value="Pirati" style="swimlane;fontStyle=1;align=center;verticalAlign=top;childLayout=stackLayout;horizontal=1;startSize=26;horizontalStack=0;resizeParent=1;resizeParentMax=0;resizeLast=0;collapsible=1;marginBottom=0;whiteSpace=wrap;html=1;" vertex="1" parent="1">
          <mxGeometry x="-1150" y="770" width="240" height="190" as="geometry" />
        </mxCell>
        <mxCell id="X7-3SCbGee9ea4Wvlvof-53" value="&lt;div&gt;-giorniPersi: int&lt;/div&gt;&lt;div&gt;-guadagnoCrediti: int&lt;/div&gt;&lt;div&gt;-tipoRequisito: TipoElemento&lt;/div&gt;&lt;div&gt;-numRequisito: int&lt;/div&gt;&lt;div&gt;-tipoColpi: TipoElemento&lt;/div&gt;&lt;div&gt;-colpi: Colpi[5]&lt;/div&gt;" style="text;strokeColor=none;fillColor=none;align=left;verticalAlign=top;spacingLeft=4;spacingRight=4;overflow=hidden;rotatable=0;points=[[0,0.5],[1,0.5]];portConstraint=eastwest;whiteSpace=wrap;html=1;" vertex="1" parent="X7-3SCbGee9ea4Wvlvof-52">
          <mxGeometry y="26" width="240" height="94" as="geometry" />
        </mxCell>
        <mxCell id="X7-3SCbGee9ea4Wvlvof-54" value="" style="line;strokeWidth=1;fillColor=none;align=left;verticalAlign=middle;spacingTop=-1;spacingLeft=3;spacingRight=3;rotatable=0;labelPosition=right;points=[];portConstraint=eastwest;strokeColor=inherit;" vertex="1" parent="X7-3SCbGee9ea4Wvlvof-52">
          <mxGeometry y="120" width="240" height="8" as="geometry" />
        </mxCell>
        <mxCell id="X7-3SCbGee9ea4Wvlvof-55" value="&lt;div&gt;+risolvi(giocatore: Giocatore): void&lt;/div&gt;&lt;div&gt;+Pirati(void)&lt;/div&gt;" style="text;strokeColor=none;fillColor=none;align=left;verticalAlign=top;spacingLeft=4;spacingRight=4;overflow=hidden;rotatable=0;points=[[0,0.5],[1,0.5]];portConstraint=eastwest;whiteSpace=wrap;html=1;" vertex="1" parent="X7-3SCbGee9ea4Wvlvof-52">
          <mxGeometry y="128" width="240" height="62" as="geometry" />
        </mxCell>
      </root>
    </mxGraphModel>
  </diagram>
</mxfile>
